<?xml version="1.0" encoding="utf-8"?>
<!-- Generator: Adobe Illustrator 21.0.1, SVG Export Plug-In . SVG Version: 6.00 Build 0)  -->
<svg version="1.1" id="Layer_1" xmlns="http://www.w3.org/2000/svg" xmlns:xlink="http://www.w3.org/1999/xlink" x="0px" y="0px"
	 viewBox="0 0 566.9 566.9" style="enable-background:new 0 0 566.9 566.9;" xml:space="preserve">
<style type="text/css">
	.st0{fill:#FFFFFF;}
</style>
<g>
	<rect x="-0.5" y="0.2" width="566.9" height="566.9"/>
	<path class="st0" d="M194.4,264c48.2,0,96.3,0,144.5-0.1c5,0,8.7,0.3,9.3,6.7c0.2,2,3.9,4.3,6.4,5.1c3.8,1.1,7.9,1,11.9,1.3
		c5.2,0.4,10.2,0.8,13.3,6.2c0.7,1.2,3.5,1.8,5.3,1.7c21.3-0.1,42.6-0.3,63.9-0.6c26.3-0.3,52.6-0.9,78.9-1.1
		c9.2-0.1,11.5,3.6,7.8,12c-8.6,19.5-22.5,34.9-39.4,47.5c-21.6,16.1-46.4,24.8-72.8,28c-21.8,2.6-43.8,3.4-65.7,5.1
		c-4.3,0.3-8.6,0.8-12.9,1.6c-15.3,2.9-22.9,13.9-27.3,27.6c-5.3,16.6,0,28.4,16.3,34.9c9.4,3.7,19.3,6.1,29.1,8.8
		c5.9,1.6,10.5,4.4,14.1,9.5c4.2,5.8,8.9,11.2,13.7,16.5c6.1,6.6,9.4,13.9,8.6,23c-0.5,5.6-0.4,11.3-0.4,17c0,4.5-1.7,6.8-6.4,6.8
		c-14,0-28,0.2-42,0.2c-4.8,0-9.6-0.5-14.5-0.5c-5.8,0-11-1.7-15-5.8c-12.5-12.9-28.4-18.2-45.7-19.8c-19.8-1.8-39.6-2-59,3.5
		c-9.3,2.6-17.7,6.7-24.6,13.7c-5.6,5.7-12.1,8.7-20.5,8.7c-16.8-0.2-33.6,0.5-50.5,0.5c-9.3,0-9.5-0.5-10.1-9.9
		c-0.1-1.5-0.3-3-0.3-4.5c0.3-24.1-2.6-19.6,14.3-39.4c1.8-2.1,4-4.1,5.4-6.5c5.1-8.9,13.4-12.3,22.8-14.5
		c7.6-1.8,15.2-3.9,22.4-6.8c14.7-5.8,21.4-16.4,19.5-32.2c-2.9-24.9-14.9-45-34.3-60.9c-23.6-19.3-51.1-29.5-80.6-35
		c-10.1-1.9-20.4-2.9-30.6-4.8c-9.7-1.8-13.3-6.2-14-16c-0.3-5.1-0.3-10.3-0.1-15.5c0.3-7.4,2.9-10.2,10.4-10.7
		c7.8-0.5,15.6-0.9,23.4-0.9c41.7-0.1,83.3,0,125,0C194.4,264.2,194.4,264.1,194.4,264z"/>
</g>
</svg>
