<?xml version="1.0" encoding="utf-8"?>
<!-- Generator: Adobe Illustrator 21.0.1, SVG Export Plug-In . SVG Version: 6.00 Build 0)  -->
<svg version="1.2" baseProfile="tiny" id="Layer_1" xmlns="http://www.w3.org/2000/svg" xmlns:xlink="http://www.w3.org/1999/xlink"
	 x="0px" y="0px" viewBox="0 0 566.9 566.9" xml:space="preserve">
<g>
	<rect x="-0.5" y="0.2" fill="#000000" width="566.9" height="566.9"/>
	<path fill="#FFFFFF" d="M194.4,179c48.2,0,96.3,0,144.5-0.1c5,0,8.7,0.3,9.3,6.7c0.2,2,3.9,4.3,6.4,5.1c3.8,1.1,7.9,1,11.9,1.3
		c5.2,0.4,10.2,0.8,13.3,6.2c0.7,1.2,3.5,1.8,5.3,1.7c21.3-0.1,42.6-0.3,63.9-0.6c26.3-0.3,52.6-0.9,78.9-1.1
		c9.2-0.1,11.5,3.6,7.8,12c-8.6,19.5-22.5,34.9-39.4,47.5c-21.6,16.1-46.4,24.8-72.8,28c-21.8,2.6-43.8,3.4-65.7,5.1
		c-4.3,0.3-8.6,0.8-12.9,1.6c-15.3,2.9-22.9,13.9-27.3,27.6c-5.3,16.6,0,28.4,16.3,34.9c9.4,3.7,19.3,6.1,29.1,8.8
		c5.9,1.6,10.5,4.4,14.1,9.5c4.2,5.8,8.9,11.2,13.7,16.5c6.1,6.6,9.4,13.9,8.6,23c-0.5,5.6-0.4,11.3-0.4,17c0,4.5-1.7,6.8-6.4,6.8
		c-14,0-28,0.2-42,0.2c-4.8,0-9.6-0.5-14.5-0.5c-5.8,0-11-1.7-15-5.8c-12.5-12.9-28.4-18.2-45.7-19.8c-19.8-1.8-39.6-2-59,3.5
		c-9.3,2.6-17.7,6.7-24.6,13.7c-5.6,5.7-12.1,8.7-20.5,8.7c-16.8-0.2-33.6,0.5-50.5,0.5c-9.3,0-9.5-0.5-10.1-9.9
		c-0.1-1.5-0.3-3-0.3-4.5c0.3-24.1-2.6-19.6,14.3-39.4c1.8-2.1,4-4.1,5.4-6.5c5.1-8.9,13.4-12.3,22.8-14.5
		c7.6-1.8,15.2-3.9,22.4-6.8c14.7-5.8,21.4-16.4,19.5-32.2c-2.9-24.9-14.9-45-34.3-60.9c-23.6-19.3-51.1-29.5-80.6-35
		c-10.1-1.9-20.4-2.9-30.6-4.8c-9.7-1.8-13.3-6.2-14-16c-0.3-5.1-0.3-10.3-0.1-15.5c0.3-7.4,2.9-10.2,10.4-10.7
		c7.8-0.5,15.6-0.9,23.4-0.9c41.7-0.1,83.3,0,125,0C194.4,179.2,194.4,179.1,194.4,179z"/>
	<g>
		<path fill="#FFFFFF" d="M73.6,535.5l-1.7-7.9h-0.4c-2.8,3.5-5.5,5.8-8.3,7s-6.2,1.8-10.3,1.8c-5.5,0-9.8-1.4-12.9-4.2
			c-3.1-2.8-4.7-6.9-4.7-12.1c0-11.2,8.9-17,26.8-17.6l9.4-0.3v-3.4c0-4.3-0.9-7.6-2.8-9.6c-1.9-2.1-4.9-3.1-9-3.1
			c-4.6,0-9.8,1.4-15.7,4.2l-2.6-6.4c2.7-1.5,5.7-2.6,9-3.5c3.2-0.8,6.5-1.3,9.8-1.3c6.6,0,11.5,1.5,14.7,4.4
			c3.2,2.9,4.8,7.6,4.8,14.1v37.8H73.6z M54.7,529.6c5.2,0,9.3-1.4,12.3-4.3c3-2.9,4.5-6.9,4.5-12v-5l-8.4,0.4
			c-6.7,0.2-11.5,1.3-14.4,3.1c-2.9,1.8-4.4,4.7-4.4,8.6c0,3,0.9,5.3,2.8,6.9C48.8,528.8,51.4,529.6,54.7,529.6z"/>
		<path fill="#FFFFFF" d="M105,480.1V516c0,4.5,1,7.9,3.1,10.1c2.1,2.2,5.3,3.3,9.6,3.3c5.8,0,10-1.6,12.7-4.7c2.7-3.2,4-8.3,4-15.5
			v-29.1h8.4v55.4h-6.9l-1.2-7.4h-0.5c-1.7,2.7-4.1,4.8-7.1,6.3c-3,1.4-6.5,2.2-10.4,2.2c-6.7,0-11.8-1.6-15.1-4.8
			c-3.4-3.2-5-8.3-5-15.4v-36.2H105z"/>
		<path fill="#FFFFFF" d="M178.5,529.6c1.5,0,2.9-0.1,4.3-0.3c1.4-0.2,2.5-0.4,3.3-0.7v6.4c-0.9,0.4-2.2,0.8-4,1.1
			c-1.8,0.3-3.4,0.4-4.8,0.4c-10.7,0-16.1-5.6-16.1-16.9v-32.9h-7.9v-4l7.9-3.5l3.5-11.8h4.8v12.8h16.1v6.5h-16.1v32.6
			c0,3.3,0.8,5.9,2.4,7.7C173.6,528.7,175.7,529.6,178.5,529.6z"/>
		<path fill="#FFFFFF" d="M244.9,507.7c0,9-2.3,16.1-6.8,21.1c-4.5,5.1-10.8,7.6-18.8,7.6c-5,0-9.3-1.2-13.2-3.5
			c-3.8-2.3-6.8-5.7-8.9-10c-2.1-4.3-3.1-9.4-3.1-15.3c0-9,2.3-16.1,6.8-21.1c4.5-5,10.8-7.6,18.8-7.6c7.7,0,13.9,2.6,18.5,7.7
			C242.6,492,244.9,498.9,244.9,507.7z M202.7,507.7c0,7.1,1.4,12.5,4.2,16.2c2.8,3.7,7,5.6,12.5,5.6c5.5,0,9.7-1.8,12.5-5.5
			c2.8-3.7,4.3-9.1,4.3-16.2c0-7-1.4-12.4-4.3-16c-2.8-3.7-7-5.5-12.6-5.5c-5.5,0-9.6,1.8-12.4,5.4
			C204.1,495.2,202.7,500.6,202.7,507.7z"/>
		<path fill="#FFFFFF" d="M305.2,535.5l-5.4-17.6H273l-5.4,17.6h-16.9l26.1-74.2h19.1l26.2,74.2H305.2z M296.1,504.8
			c-5-15.9-7.7-24.9-8.4-27c-0.6-2.1-1.1-3.7-1.3-5c-1.1,4.3-4.3,15-9.5,32H296.1z"/>
		<path fill="#FFFFFF" d="M362.8,473.6c-5.9,0-10.5,2.2-13.7,6.6c-3.2,4.4-4.8,10.6-4.8,18.5c0,16.5,6.2,24.7,18.5,24.7
			c5.2,0,11.5-1.3,18.8-3.9v13.1c-6.1,2.5-12.8,3.8-20.3,3.8c-10.7,0-19-3.3-24.7-9.8c-5.7-6.5-8.5-15.9-8.5-28.1
			c0-7.7,1.4-14.4,4.2-20.2c2.8-5.8,6.8-10.2,12-13.3c5.2-3.1,11.4-4.6,18.4-4.6c7.2,0,14.4,1.7,21.6,5.2l-5.1,12.7
			c-2.8-1.3-5.5-2.5-8.3-3.4C368.2,474.1,365.5,473.6,362.8,473.6z"/>
		<path fill="#FFFFFF" d="M428.6,535.5l-17.8-57.9h-0.5c0.6,11.8,1,19.6,1,23.6v34.3h-14v-73.9h21.3l17.5,56.5h0.3l18.5-56.5h21.3
			v73.9h-14.6v-35c0-1.6,0-3.6,0.1-5.7c0-2.2,0.3-7.9,0.7-17.2H462l-19,57.8H428.6z"/>
		<path fill="#FFFFFF" d="M537.4,535.5h-42.5v-73.9h42.5v12.8h-26.9v16.2h25v12.8h-25v19h26.9V535.5z"/>
	</g>
</g>
</svg>
