<?xml version="1.0" standalone="no"?>
<!DOCTYPE svg PUBLIC "-//W3C//DTD SVG 20010904//EN"
 "http://www.w3.org/TR/2001/REC-SVG-20010904/DTD/svg10.dtd">
<svg version="1.0" xmlns="http://www.w3.org/2000/svg"
 width="16.000000pt" height="16.000000pt" viewBox="0 0 16.000000 16.000000"
 preserveAspectRatio="xMidYMid meet">
<metadata>
Created by potrace 1.11, written by Peter Selinger 2001-2013
</metadata>
<g transform="translate(0.000000,16.000000) scale(0.003125,-0.003125)"
fill="#000000" stroke="none">
<path d="M0 2560 l0 -2560 2560 0 2560 0 -3 2557 -2 2558 -2558 3 -2557 2 0
-2560z m3104 170 c15 -5 32 -24 40 -44 21 -50 50 -62 161 -67 57 -3 79 -11
117 -47 l27 -25 683 7 c728 8 719 8 719 -39 1 -77 -106 -249 -232 -373 -175
-172 -372 -280 -612 -337 -101 -24 -131 -29 -234 -40 -143 -14 -170 -16 -398
-31 -267 -16 -322 -29 -393 -89 -90 -76 -149 -245 -121 -347 24 -90 110 -144
324 -204 72 -20 144 -45 161 -55 28 -17 119 -122 210 -241 45 -59 52 -92 50
-233 -2 -101 -6 -129 -19 -142 -14 -15 -49 -16 -289 -15 -150 0 -289 3 -308 7
-41 7 -60 19 -120 74 -65 60 -188 122 -272 136 -108 19 -174 24 -333 21 -205
-3 -288 -18 -402 -72 -39 -19 -91 -52 -115 -75 -23 -22 -66 -51 -93 -64 -49
-24 -59 -25 -334 -28 -246 -3 -286 -1 -303 12 -16 14 -19 31 -22 136 -3 139 5
190 37 227 12 14 36 43 54 65 17 21 43 52 57 68 15 17 36 44 48 62 33 46 89
78 181 103 318 83 399 155 384 340 -24 300 -220 551 -567 725 -90 45 -293 118
-362 130 -18 4 -52 10 -76 16 -23 5 -59 12 -80 15 -20 3 -66 10 -102 15 -36 6
-83 13 -105 16 -86 11 -129 45 -142 109 -3 16 -6 69 -7 118 -2 105 12 142 58
155 17 5 332 9 700 10 369 1 672 4 675 6 9 10 1330 5 1355 -5z"/>
</g>
</svg>
